<svg xmlns="http://www.w3.org/2000/svg" xmlns:xlink="http://www.w3.org/1999/xlink" xml:space="preserve" version="1.1" style="shape-rendering:geometricPrecision;text-rendering:geometricPrecision;image-rendering:optimizeQuality;" viewBox="0 0 805 613.75" x="0px" y="0px" fill-rule="evenodd" clip-rule="evenodd"><defs><style type="text/css">
   
    .fil0 {fill:black}
   
  </style></defs><g><path class="fil0" d="M37 301l133 -175 27 31 104 -157 67 116 30 -46 95 165 22 -30 99 138 21 -37 170 79 -46 10 -115 -45 -24 41 -102 -128 -34 44 -84 -177c0,0 -30,87 -33,82 -3,-5 -69,-151 -69,-151l-105 168 -25 -62 -71 124 -60 10z"/><polygon class="fil0" points="0,361 246,328 442,453 746,407 440,491 235,361 "/></g><text x="0" y="506" fill="#000000" font-size="5px" font-weight="bold" font-family="'Helvetica Neue', Helvetica, Arial-Unicode, Arial, Sans-serif">Created by Kangrif</text><text x="0" y="511" fill="#000000" font-size="5px" font-weight="bold" font-family="'Helvetica Neue', Helvetica, Arial-Unicode, Arial, Sans-serif">from the Noun Project</text></svg>